<svg version="1.1" xmlns="http://www.w3.org/2000/svg" xmlns:xlink="http://www.w3.org/1999/xlink" width="153.8889" height="87.3139" viewBox="0,0,153.8889,87.3139"><g transform="translate(-103.05555,-242.91666)"><g stroke-miterlimit="10"><path d="M234.33136,310.63293c0,-2.34721 1.90279,-4.25 4.25,-4.25c2.34721,0 4.25,1.90279 4.25,4.25c0,2.34721 -1.90279,4.25 -4.25,4.25c-2.34721,0 -4.25,-1.90279 -4.25,-4.25z" fill="#282828" stroke="none" stroke-width="0.5"/><path d="M227.36707,293.66865c0,-2.34721 1.90279,-4.25 4.25,-4.25c2.34721,0 4.25,1.90279 4.25,4.25c0,2.34721 -1.90279,4.25 -4.25,4.25c-2.34721,0 -4.25,-1.90279 -4.25,-4.25z" fill="#282828" stroke="none" stroke-width="0.5"/><path d="M212.90279,276.16865c0,-2.34721 1.90279,-4.25 4.25,-4.25c2.34721,0 4.25,1.90279 4.25,4.25c0,2.34721 -1.90279,4.25 -4.25,4.25c-2.34721,0 -4.25,-1.90279 -4.25,-4.25z" fill="#282828" stroke="none" stroke-width="0.5"/><path d="M195.75993,265.45437c0,-2.34721 1.90279,-4.25 4.25,-4.25c2.34721,0 4.25,1.90279 4.25,4.25c0,2.34721 -1.90279,4.25 -4.25,4.25c-2.34721,0 -4.25,-1.90279 -4.25,-4.25z" fill="#282828" stroke="none" stroke-width="0.5"/><path d="M173.07144,260.81151c0,-2.34721 1.90279,-4.25 4.25,-4.25c2.34721,0 4.25,1.90279 4.25,4.25c0,2.34721 -1.90279,4.25 -4.25,4.25c-2.34721,0 -4.25,-1.90279 -4.25,-4.25z" fill="#282828" stroke="none" stroke-width="0.5"/><path d="M149.33136,265.45437c0,-2.34721 1.90279,-4.25 4.25,-4.25c2.34721,0 4.25,1.90279 4.25,4.25c0,2.34721 -1.90279,4.25 -4.25,4.25c-2.34721,0 -4.25,-1.90279 -4.25,-4.25z" fill="#282828" stroke="none" stroke-width="0.5"/><path d="M131.47421,279.74008c0,-2.34721 1.90279,-4.25 4.25,-4.25c2.34721,0 4.25,1.90279 4.25,4.25c0,2.34721 -1.90279,4.25 -4.25,4.25c-2.34721,0 -4.25,-1.90279 -4.25,-4.25z" fill="#282828" stroke="none" stroke-width="0.5"/><path d="M121.83136,296.5258c0,-2.34721 1.90279,-4.25 4.25,-4.25c2.34721,0 4.25,1.90279 4.25,4.25c0,2.34721 -1.90279,4.25 -4.25,4.25c-2.34721,0 -4.25,-1.90279 -4.25,-4.25z" fill="#282828" stroke="none" stroke-width="0.5"/><path d="M115.40279,314.20437c0,-2.34721 1.90279,-4.25 4.25,-4.25c2.34721,0 4.25,1.90279 4.25,4.25c0,2.34721 -1.90279,4.25 -4.25,4.25c-2.34721,0 -4.25,-1.90279 -4.25,-4.25z" fill="#282828" stroke="none" stroke-width="0.5"/><g fill="none" stroke-width="7.5"><path d="M109.77755,326.48057c-1.89361,-1.88216 -2.97199,-4.02986 -2.97199,-6.48056c0,-40.50088 32.83246,-73.33334 73.33334,-73.33334c30.77155,0 57.11644,18.95279 67.99808,45.82178" stroke="#282828"/><path d="M248.05046,292.58853c3.31945,8.36558 5.144,17.48696 5.144,27.03448c0,2.60287 -1.20663,4.86419 -3.31221,6.82872" stroke="#161616"/></g></g></g></svg>